<?xml version="1.0" encoding="utf-8"?>
<!-- Generator: Adobe Illustrator 21.0.0, SVG Export Plug-In . SVG Version: 6.00 Build 0)  -->
<svg version="1.1" id="Capa_1" xmlns="http://www.w3.org/2000/svg" xmlns:xlink="http://www.w3.org/1999/xlink" x="0px" y="0px"
	 viewBox="0 0 200 200" style="enable-background:new 0 0 200 200;" xml:space="preserve">
<style type="text/css">
	.st0{fill:#30302D;}
</style>
<path class="st0" d="M100.5,136.1c17.4,0,32.5-12.4,35.8-29.5c0.1-0.6-0.1-1.3-0.5-1.8c-0.5-0.5-1.1-0.7-1.8-0.6
	c-2,0.4-3.9,0.5-5.7,0.5c-17.9,0-32.5-14.6-32.5-32.5c0-2,0.2-4.1,0.6-6.2c0.1-0.6-0.1-1.3-0.5-1.8c-0.5-0.5-1.1-0.7-1.8-0.6
	C76.6,66.9,64,82,64,99.7C64,119.8,80.4,136.1,100.5,136.1z M92,68.3c-0.2,1.4-0.2,2.7-0.2,4c0,20.1,16.4,36.5,36.5,36.5
	c1.1,0,2.3-0.1,3.5-0.2c-4,13.8-16.7,23.5-31.2,23.5c-17.9,0-32.5-14.6-32.5-32.5C68,84.9,77.9,72.1,92,68.3z"/>
</svg>
