<?xml version="1.0" encoding="utf-8"?>
<!-- Generator: Adobe Illustrator 21.0.0, SVG Export Plug-In . SVG Version: 6.00 Build 0)  -->
<svg version="1.1" id="Capa_1" xmlns="http://www.w3.org/2000/svg" xmlns:xlink="http://www.w3.org/1999/xlink" x="0px" y="0px"
	 viewBox="0 0 200 200" style="enable-background:new 0 0 200 200;" xml:space="preserve">
<style type="text/css">
	.st0{fill:#30302D;}
</style>
<g>
	<path class="st0" d="M47.9,127c1.4,0.8,3,1.5,4.7,2c3.7,12.6,15.2,21.3,28.5,21.3c5.2,0,10.3-1.4,14.9-4c1.5-0.9,3-1.9,4.4-3.1
		c2.7,1.2,5.5,1.8,8.5,1.8c3.7,0,7.4-1,10.7-2.9c6.6-3.8,10.7-10.9,10.7-18.5c0,0,0,0,0,0c18.9-1.5,33.4-17.1,33.4-36.3
		c0-20.1-16.4-36.5-36.5-36.5C110.5,50.7,96,62.1,91.9,78c-3.5-1.4-7.1-2.1-10.8-2.1c-5.2,0-10.3,1.4-14.9,4c-3.2,1.9-6,4.3-8.3,7.2
		c-3.5,0.1-7,1.1-10,2.9c-6.6,3.8-10.7,10.9-10.7,18.5C37.2,116.1,41.3,123.2,47.9,127z M127.2,54.7c17.9,0,32.5,14.6,32.5,32.5
		c0,17.1-13,31-29.9,32.3c0-0.1,0-0.1-0.1-0.2c-0.1-0.7-0.3-1.3-0.5-2c0,0,0,0,0-0.1c-0.2-0.6-0.4-1.2-0.7-1.9
		c0-0.1-0.1-0.2-0.1-0.3c-0.3-0.6-0.5-1.2-0.8-1.7c-0.1-0.1-0.1-0.2-0.2-0.3c-0.3-0.6-0.7-1.2-1.1-1.7c1.1-2.2,1.7-4.7,1.7-7.2
		c0-5.8-3.1-11.3-8.2-14.2c-4.3-2.5-9.7-2.9-14.2-1.1c-0.3-0.5-0.7-1-1.1-1.5c-0.1-0.2-0.3-0.3-0.4-0.5c-0.3-0.3-0.5-0.6-0.8-0.9
		c-0.2-0.2-0.3-0.3-0.5-0.5c-0.3-0.3-0.5-0.5-0.8-0.8c-0.2-0.2-0.4-0.3-0.5-0.5c-0.3-0.2-0.5-0.5-0.8-0.7c-0.2-0.2-0.4-0.3-0.6-0.5
		c-0.3-0.2-0.5-0.4-0.8-0.7c-0.2-0.2-0.4-0.3-0.6-0.5c-0.3-0.2-0.6-0.4-0.9-0.6c-0.2-0.1-0.4-0.3-0.6-0.4c-0.3-0.2-0.6-0.4-0.9-0.6
		c-0.2-0.1-0.4-0.3-0.6-0.4c-0.1,0-0.1-0.1-0.2-0.1C99,65.2,112.1,54.7,127.2,54.7z M49.9,93.4c2.7-1.5,5.7-2.4,8.7-2.4l0.2,0
		c0.7,0,1.4-0.2,1.8-0.8c2.1-2.8,4.7-5.2,7.8-6.9c3.9-2.3,8.4-3.5,12.9-3.5c3.9,0,7.7,0.9,11.3,2.7c4.5,2.2,8.2,5.6,10.8,9.9
		c0.5,0.9,1.7,1.2,2.7,0.7c1.8-1,3.8-1.5,5.8-1.5c0.5,0,1.1,0,1.6,0.1c1.6,0.2,3.2,0.7,4.6,1.6c2.9,1.7,4.9,4.4,5.8,7.5
		c0.3,1,0.4,2.1,0.4,3.2c0,2.2-0.6,4.4-1.8,6.3c-0.4,0.7-0.4,1.6,0.2,2.3c0.3,0.3,0.5,0.6,0.7,1c1.6,2.4,2.6,5.1,2.9,8.1
		c0,0,0,0,0,0c0,0.2,0,0.4,0.1,0.6c0,0.4,0.1,0.8,0.1,1.1c0,6.2-3.3,11.9-8.7,15.1c-2.7,1.5-5.7,2.4-8.7,2.4c-2.8,0-5.4-0.6-7.9-1.9
		c-0.8-0.4-1.7-0.3-2.3,0.3c-1.4,1.3-3,2.5-4.7,3.5c-3.9,2.3-8.4,3.5-12.9,3.5c-11.8,0-22.1-8-24.9-19.5c-0.2-0.7-0.8-1.3-1.5-1.5
		c-1.7-0.4-3.4-1-4.8-1.9c-5.4-3.1-8.7-8.9-8.7-15.1C41.2,102.3,44.5,96.5,49.9,93.4z"/>
</g>
</svg>
