<?xml version="1.0" encoding="utf-8"?>
<!-- Generator: Adobe Illustrator 21.0.0, SVG Export Plug-In . SVG Version: 6.00 Build 0)  -->
<svg version="1.1" id="Capa_1" xmlns="http://www.w3.org/2000/svg" xmlns:xlink="http://www.w3.org/1999/xlink" x="0px" y="0px"
	 viewBox="0 0 200 200" style="enable-background:new 0 0 200 200;" xml:space="preserve">
<style type="text/css">
	.st0{fill:#30302D;}
</style>
<g>
	<path class="st0" d="M47.2,126.8c1.5,0.8,3,1.5,4.7,2c3.7,12.6,15.2,21.3,28.5,21.3c5.2,0,10.3-1.4,14.9-4c1.5-0.9,3-1.9,4.4-3.1
		c2.7,1.2,5.5,1.8,8.5,1.8c3.7,0,7.4-1,10.7-2.9c6.6-3.8,10.7-10.9,10.7-18.5c0-0.2,0-0.3,0-0.5c16.5-1,30.4-13.1,33.6-29.4
		c0.1-0.6-0.1-1.3-0.5-1.8c-0.5-0.5-1.1-0.7-1.8-0.6c-2,0.4-3.9,0.5-5.7,0.5c-17.9,0-32.5-14.6-32.5-32.5c0-2,0.2-4.1,0.6-6.2
		c0.1-0.6-0.1-1.3-0.5-1.8c-0.5-0.5-1.1-0.7-1.8-0.6c-14.3,2.6-25.7,13.5-29,27.5c-3.7-1.6-7.5-2.3-11.4-2.3c-5.2,0-10.3,1.4-14.9,4
		c-3.2,1.9-6,4.3-8.3,7.2c-3.5,0.1-7,1.1-10,2.9c-6.6,3.8-10.7,10.9-10.7,18.5C36.5,115.9,40.6,123,47.2,126.8z M118.8,55.2
		c-0.2,1.4-0.2,2.7-0.2,4c0,20.1,16.4,36.5,36.5,36.5c1.1,0,2.3-0.1,3.5-0.2c-3.8,13.2-15.7,22.7-29.5,23.4c0-0.1,0-0.1-0.1-0.2
		c-0.1-0.6-0.3-1.2-0.5-1.8c0,0,0-0.1,0-0.1c-0.2-0.6-0.4-1.2-0.6-1.7c0-0.1-0.1-0.2-0.1-0.3c-0.2-0.6-0.5-1.1-0.8-1.6
		c-0.1-0.1-0.1-0.2-0.2-0.3c-0.3-0.5-0.6-1.1-1-1.6c1.1-2.2,1.7-4.7,1.7-7.2c0-5.8-3.1-11.3-8.2-14.2c-4.3-2.5-9.7-2.9-14.2-1.1
		c-0.3-0.5-0.7-0.9-1-1.4c-0.1-0.1-0.2-0.3-0.3-0.4c-0.2-0.3-0.5-0.6-0.8-0.9c-0.1-0.2-0.3-0.3-0.4-0.5c-0.2-0.3-0.5-0.5-0.7-0.8
		c-0.2-0.2-0.3-0.3-0.5-0.5c-0.2-0.2-0.5-0.5-0.7-0.7c-0.2-0.2-0.4-0.3-0.5-0.5c-0.3-0.2-0.5-0.4-0.8-0.7c-0.2-0.2-0.4-0.3-0.6-0.4
		c-0.3-0.2-0.5-0.4-0.8-0.6c-0.2-0.1-0.4-0.3-0.6-0.4c-0.3-0.2-0.6-0.4-0.9-0.6c-0.2-0.1-0.4-0.2-0.6-0.4c-0.1,0-0.1-0.1-0.2-0.1
		C97.9,67.9,107,58.4,118.8,55.2z M49.2,93.2c2.6-1.5,5.7-2.4,8.7-2.4c0,0,0,0,0,0c0.1,0,0.2,0,0.3,0c0.7,0,1.2-0.3,1.6-0.8
		c2.1-2.8,4.7-5.2,7.8-6.9c3.9-2.3,8.4-3.5,12.9-3.5c4.2,0,8.2,1,12,3c4.2,2.2,7.7,5.6,10.1,9.6c0.5,0.9,1.7,1.2,2.7,0.7
		c1.8-1,3.8-1.5,5.8-1.5c2.2,0,4.3,0.6,6.2,1.7c3.8,2.2,6.2,6.3,6.2,10.7c0,2.2-0.6,4.4-1.8,6.3c-0.4,0.7-0.4,1.6,0.2,2.3
		c0.5,0.6,0.9,1.3,1.3,1.9c0.3,0.5,0.5,1,0.8,1.5c0.8,1.6,1.3,3.4,1.5,5.2c0,0,0,0,0,0l0,0.1c0.1,0.7,0.2,1.4,0.2,2
		c0,6.2-3.3,11.9-8.7,15.1c-2.7,1.5-5.7,2.3-8.7,2.3c-2.8,0-5.4-0.6-7.9-1.9c-0.8-0.4-1.7-0.3-2.3,0.3c-1.4,1.4-3,2.5-4.7,3.5
		c-3.9,2.3-8.4,3.5-12.9,3.5c-11.8,0-22.1-8-24.9-19.5c-0.2-0.7-0.8-1.3-1.5-1.5c-1.7-0.4-3.3-1-4.8-1.9c-5.4-3.1-8.7-8.9-8.7-15.1
		C40.5,102.1,43.8,96.4,49.2,93.2z"/>
</g>
</svg>
