<?xml version="1.0" encoding="utf-8"?>
<!-- Generator: Adobe Illustrator 21.0.0, SVG Export Plug-In . SVG Version: 6.00 Build 0)  -->
<svg version="1.1" id="Capa_1" xmlns="http://www.w3.org/2000/svg" xmlns:xlink="http://www.w3.org/1999/xlink" x="0px" y="0px"
	 viewBox="0 0 200 200" style="enable-background:new 0 0 200 200;" xml:space="preserve">
<style type="text/css">
	.st0{fill:#30302D;}
</style>
<g>
	<path class="st0" d="M55.3,119.5c1.4,0.8,3,1.5,4.7,2c3.7,12.6,15.2,21.3,28.5,21.3c5.2,0,10.3-1.4,14.9-4c1.5-0.9,3-1.9,4.4-3.1
		c2.7,1.2,5.5,1.8,8.5,1.8c3.7,0,7.4-1,10.7-2.9c5-2.9,8.6-7.6,10-13.2c3.4,0,6.8-1,9.8-2.7c6.2-3.6,10-10.2,10-17.3
		c0-4.1-1.2-8-3.5-11.3c1-2.1,1.5-4.4,1.5-6.7c0-5.4-2.9-10.5-7.7-13.3c-4-2.3-8.9-2.7-13.2-1c-5.2-7.6-13.6-12-22.8-12
		c-4.8,0-9.6,1.3-13.9,3.7c-3,1.7-5.6,4-7.7,6.6c-2.5,0.1-4.9,0.7-7.2,1.7c-3,0.7-5.9,1.8-8.6,3.3c-3.2,1.9-6,4.3-8.3,7.2
		c-3.5,0.1-7,1.1-10,2.9c-6.6,3.8-10.7,10.9-10.7,18.5C44.6,108.6,48.7,115.7,55.3,119.5z M99.1,64.3c3.6-2.1,7.7-3.2,11.9-3.2
		c8.4,0,16,4.3,20.4,11.6c0.5,0.9,1.7,1.2,2.7,0.7c1.7-0.9,3.5-1.3,5.3-1.3c2,0,3.9,0.5,5.7,1.5c3.5,2,5.7,5.8,5.7,9.8
		c0,2-0.6,4.1-1.6,5.8c-0.4,0.7-0.4,1.6,0.2,2.3c2.3,2.9,3.5,6.3,3.5,9.9c0,5.7-3.1,11-8,13.8c-2.2,1.3-4.6,2-7.1,2.1
		c0,0,0-0.1,0-0.1c0-0.4,0-0.8,0-1.2c0-4.4-1.3-8.6-3.8-12.2c1.1-2.2,1.7-4.7,1.7-7.2c0-5.8-3.1-11.2-8.2-14.2
		c-4.3-2.5-9.7-2.9-14.2-1.1c-0.3-0.5-0.7-0.9-1-1.4c-0.1-0.1-0.2-0.3-0.3-0.4c-0.2-0.3-0.5-0.6-0.7-0.9c-0.1-0.2-0.3-0.3-0.4-0.5
		c-0.2-0.3-0.5-0.5-0.8-0.8c-0.1-0.1-0.3-0.3-0.4-0.4c-0.3-0.3-0.6-0.6-0.9-0.8c-0.1-0.1-0.2-0.2-0.4-0.3c-0.4-0.4-0.8-0.7-1.3-1.1
		c0,0-0.1,0-0.1-0.1c-0.4-0.3-0.8-0.6-1.3-0.9c-0.1-0.1-0.3-0.2-0.4-0.3c-0.3-0.2-0.6-0.4-1-0.6c-0.2-0.1-0.3-0.2-0.5-0.3
		c-0.3-0.2-0.6-0.4-1-0.5c-0.2-0.1-0.3-0.2-0.5-0.3c-0.4-0.2-0.7-0.4-1.1-0.5c-0.1-0.1-0.3-0.1-0.4-0.2c-0.5-0.2-1-0.4-1.5-0.6
		c-0.1,0-0.1,0-0.2-0.1c-0.5-0.2-0.9-0.3-1.4-0.5c-0.2-0.1-0.4-0.1-0.5-0.2c-0.4-0.1-0.7-0.2-1.1-0.3c-0.2-0.1-0.4-0.1-0.6-0.2
		c-0.3-0.1-0.7-0.2-1.1-0.2c-0.2,0-0.4-0.1-0.6-0.1c-0.1,0-0.2,0-0.3-0.1C95.1,67,97,65.5,99.1,64.3z M57.3,85.9
		c2.7-1.5,5.7-2.3,8.7-2.3c0,0,0,0,0,0c0.1,0,0.2,0,0.3,0c0.6,0,1.2-0.3,1.6-0.8c2.1-2.8,4.7-5.2,7.8-6.9c2.4-1.4,4.9-2.4,7.6-2.9
		c1.7-0.4,3.5-0.6,5.3-0.6c9.1,0,17.4,4.7,22.1,12.6c0.5,0.9,1.7,1.2,2.7,0.7c1.8-1,3.8-1.5,5.8-1.5c2.2,0,4.3,0.6,6.2,1.7
		c3.8,2.2,6.2,6.3,6.2,10.7c0,2.2-0.6,4.4-1.8,6.3c-0.4,0.7-0.4,1.6,0.2,2.3c2.5,3.1,3.8,6.8,3.8,10.8c0,0.2,0,0.4,0,0.7
		c0,0.7-0.1,1.4-0.3,2.3c-0.9,5.1-4,9.5-8.4,12.1c-2.7,1.5-5.7,2.4-8.7,2.4c-2.8,0-5.4-0.6-7.9-1.9c-0.7-0.4-1.7-0.3-2.3,0.3
		c-1.5,1.4-3,2.5-4.7,3.5c-3.9,2.3-8.4,3.5-12.9,3.5c-11.8,0-22.1-8-24.9-19.5c-0.2-0.7-0.8-1.3-1.5-1.5c-1.7-0.4-3.4-1-4.8-1.9
		c-5.4-3.1-8.7-8.9-8.7-15.1C48.6,94.8,51.9,89,57.3,85.9z"/>
</g>
</svg>
