<?xml version="1.0" encoding="utf-8"?>
<!-- Generator: Adobe Illustrator 21.0.0, SVG Export Plug-In . SVG Version: 6.00 Build 0)  -->
<svg version="1.1" id="Capa_1" xmlns="http://www.w3.org/2000/svg" xmlns:xlink="http://www.w3.org/1999/xlink" x="0px" y="0px"
	 viewBox="0 0 200 200" style="enable-background:new 0 0 200 200;" xml:space="preserve">
<style type="text/css">
	.st0{fill:#30302D;}
</style>
<g>
	<rect x="98.1" y="106.5" class="st0" width="4" height="48"/>
	<rect x="87.5" y="87.8" class="st0" width="4" height="48"/>
	<rect x="108.7" y="96.3" class="st0" width="4" height="48"/>
	<path class="st0" d="M136.3,61.2c-4.3-2.5-9.6-2.9-14.2-1.1c-5.6-8.2-14.6-13-24.5-13c-5.2,0-10.3,1.4-14.9,4
		c-3.2,1.9-6,4.3-8.3,7.2c-3.5,0.1-7,1.1-10,2.9C57.7,65,53.6,72.1,53.6,79.7c0,7.6,4.1,14.7,10.7,18.5c1.4,0.8,3,1.5,4.7,2
		c1.7,5.6,4.9,10.6,9.5,14.4l1.5,1.3l2.6-3.1l-1.5-1.3c-4.2-3.5-7.2-8.2-8.5-13.5c-0.2-0.7-0.8-1.3-1.5-1.5c-1.7-0.4-3.4-1-4.8-1.9
		c-5.4-3.1-8.7-8.9-8.7-15.1c0-6.2,3.3-12,8.7-15.1c2.7-1.5,5.7-2.3,8.7-2.3c0,0,0,0,0,0c0.1,0,0.2,0,0.3,0c0.6,0,1.3-0.3,1.6-0.8
		c2.1-2.8,4.7-5.2,7.8-6.9c3.9-2.3,8.4-3.5,12.9-3.5c9.1,0,17.4,4.7,22.1,12.6c0.5,0.9,1.7,1.2,2.7,0.7c1.8-1,3.8-1.5,5.8-1.5
		c2.2,0,4.3,0.6,6.2,1.7c3.8,2.2,6.2,6.3,6.2,10.7c0,2.2-0.6,4.4-1.8,6.3c-0.4,0.7-0.4,1.6,0.2,2.3c2.5,3.1,3.8,6.8,3.8,10.8
		c0,6.2-3.3,12-8.7,15.1c-3.9,2.3-8.5,2.9-13,1.8l-1.9-0.5l-1,3.9l1.9,0.5c1.8,0.5,3.5,0.7,5.3,0.7c3.7,0,7.4-1,10.7-2.9
		c6.6-3.8,10.7-10.9,10.7-18.5c0-4.4-1.3-8.6-3.8-12.2c1.1-2.2,1.7-4.7,1.7-7.2C144.5,69.5,141.3,64.1,136.3,61.2z"/>
</g>
</svg>
