<?xml version="1.0" encoding="utf-8"?>
<!-- Generator: Adobe Illustrator 21.0.0, SVG Export Plug-In . SVG Version: 6.00 Build 0)  -->
<svg version="1.1" id="Capa_1" xmlns="http://www.w3.org/2000/svg" xmlns:xlink="http://www.w3.org/1999/xlink" x="0px" y="0px"
	 viewBox="0 0 200 200" style="enable-background:new 0 0 200 200;" xml:space="preserve">
<style type="text/css">
	.st0{fill:#30302D;}
</style>
<g>
	<rect x="81.1" y="118" class="st0" width="4" height="48"/>
	<rect x="70.5" y="99.4" class="st0" width="4" height="48"/>
	<rect x="91.7" y="107.8" class="st0" width="4" height="48"/>
	<path class="st0" d="M65.6,62.6c-3.2,1.9-6,4.3-8.3,7.2c-3.5,0.1-7,1.1-10,2.9c-6.6,3.8-10.7,10.9-10.7,18.5
		c0,7.6,4.1,14.7,10.7,18.5c1.5,0.8,3,1.5,4.7,2c1.7,5.6,4.9,10.6,9.5,14.4l1.5,1.3l2.6-3.1l-1.5-1.3c-4.2-3.5-7.2-8.2-8.5-13.5
		c-0.2-0.7-0.8-1.3-1.5-1.5c-1.7-0.4-3.4-1-4.8-1.9c-5.4-3.1-8.7-8.9-8.7-15.1c0-6.2,3.3-11.9,8.7-15.1c2.7-1.5,5.7-2.3,8.7-2.3
		c0,0,0,0,0,0c0.1,0,0.2,0,0.3,0c0.7,0,1.3-0.3,1.7-0.8c2.1-2.8,4.7-5.2,7.8-6.9c3.9-2.3,8.4-3.5,12.9-3.5c3.7,0,7.2,0.8,10.4,2.2
		c0.2,0.4,0.5,0.7,0.9,0.9c4.5,2.2,8.2,5.7,10.8,9.9c0.5,0.9,1.7,1.2,2.7,0.7c1.8-1,3.8-1.5,5.8-1.5c2.2,0,4.3,0.6,6.2,1.7
		c3.8,2.2,6.1,6.2,6.2,10.6c0,2.1-0.6,4.2-1.7,6.1c-0.2,0.4-0.3,0.8-0.3,1.3c0,0.5,0.1,1,0.4,1.4c2,2.6,3.3,5.7,3.6,9.1
		c0,0.2,0.1,0.3,0.1,0.5c0,0.3,0,0.5,0,0.8c0,6.2-3.3,12-8.7,15.1c-3.9,2.3-8.5,3-13,1.8l-1.9-0.5l-1,3.9l1.9,0.5
		c1.7,0.5,3.5,0.7,5.3,0.7c3.7,0,7.4-1,10.7-2.9c6.5-3.8,10.5-10.7,10.7-18.1c18.9-1.5,33.4-17.1,33.4-36.3
		c0-20.1-16.4-36.5-36.5-36.5c-16.5,0-30.9,11.1-35.2,26.8c-3.4-1.3-7.1-2.1-10.9-2.1C75.3,58.6,70.1,60,65.6,62.6z M126.6,37.9
		c17.9,0,32.5,14.6,32.5,32.5c0,17.1-12.9,31-29.7,32.3c-0.5-3-1.7-5.9-3.4-8.5c1-2.2,1.6-4.5,1.6-6.9c0-0.1,0-0.2,0-0.3
		c0,0,0-0.1,0-0.1c0-5.8-3.1-11.3-8.2-14.2c-4.3-2.5-9.7-2.9-14.2-1.1c-2.6-3.9-6-7-9.9-9.2C98.7,48.1,111.6,37.9,126.6,37.9z"/>
</g>
</svg>
