<?xml version="1.0" encoding="utf-8"?>
<!-- Generator: Adobe Illustrator 21.0.0, SVG Export Plug-In . SVG Version: 6.00 Build 0)  -->
<svg version="1.1" id="Capa_1" xmlns="http://www.w3.org/2000/svg" xmlns:xlink="http://www.w3.org/1999/xlink" x="0px" y="0px"
	 viewBox="0 0 200 200" style="enable-background:new 0 0 200 200;" xml:space="preserve">
<style type="text/css">
	.st0{fill:#30302D;}
</style>
<g>
	<rect x="81.1" y="118.5" class="st0" width="4" height="48"/>
	<rect x="70.5" y="99.8" class="st0" width="4" height="48"/>
	<rect x="91.7" y="108.3" class="st0" width="4" height="48"/>
	<path class="st0" d="M49.3,76.6c2.6-1.5,5.7-2.3,8.7-2.3c0,0,0,0,0,0c0.1,0,0.2,0,0.2,0c0.7,0,1.3-0.3,1.7-0.8
		c2.1-2.8,4.7-5.2,7.8-6.9c3.9-2.3,8.4-3.5,12.9-3.5c9.1,0,17.4,4.7,22.1,12.6c0.4,0.8,1.3,1.1,2.1,0.9c0.4,0.1,0.8,0,1.2-0.2
		c1.6-0.9,3.4-1.3,5.3-1.4c2.1,0,4.2,0.6,6,1.7c3.8,2.2,6.2,6.3,6.2,10.7c0,2.2-0.6,4.4-1.8,6.3c-0.4,0.7-0.4,1.6,0.2,2.3
		c2.5,3.1,3.8,6.8,3.8,10.8c0,6.2-3.3,12-8.7,15.1c-3.9,2.3-8.5,3-13,1.8l-1.9-0.5l-1,3.9l1.9,0.5c1.7,0.5,3.5,0.7,5.3,0.7
		c3.7,0,7.4-1,10.7-2.9c6.6-3.8,10.7-10.9,10.7-18.5c0-0.2,0-0.3,0-0.5c16.8-0.7,31.1-12.9,34.3-29.5c0.1-0.6-0.1-1.3-0.5-1.8
		c-0.5-0.5-1.1-0.7-1.8-0.6c-2,0.4-3.9,0.5-5.7,0.5c-17.9,0-32.5-14.6-32.5-32.5c0-2,0.2-4.1,0.6-6.2c0.1-0.6-0.1-1.3-0.5-1.8
		c-0.5-0.5-1.1-0.7-1.8-0.6c-14.4,2.6-25.8,13.6-29.1,27.7c-3.7-1.7-7.8-2.6-12.1-2.6c-5.2,0-10.3,1.4-14.9,4
		c-3.2,1.9-6,4.3-8.3,7.2c-3.5,0.1-7,1.1-10,2.9C40.7,77,36.6,84.1,36.6,91.7c0,7.6,4.1,14.7,10.7,18.5c1.4,0.8,3,1.5,4.7,2
		c1.7,5.6,4.9,10.6,9.5,14.4l1.5,1.3l2.6-3.1l-1.5-1.3c-4.2-3.5-7.2-8.2-8.5-13.5c-0.2-0.7-0.8-1.3-1.5-1.5c-1.7-0.4-3.4-1-4.8-1.9
		c-5.4-3.1-8.7-8.9-8.7-15.1C40.6,85.5,43.9,79.8,49.3,76.6z M119.6,38.5c-0.2,1.4-0.2,2.7-0.2,4c0,20.1,16.4,36.5,36.5,36.5
		c1.1,0,2.3-0.1,3.5-0.2c-3.8,13.2-15.7,22.7-29.5,23.4c-0.6-2.8-1.7-5.4-3.3-7.7c1.1-2.2,1.7-4.7,1.7-7.2c0-5.8-3.1-11.3-8.2-14.2
		c-2.8-1.6-6-2.3-9.1-2.1c-1.8,0-3.5,0.3-5.2,0.9c-2.4-3.5-5.6-6.4-9.3-8.6C98.8,51.3,107.8,41.7,119.6,38.5z"/>
</g>
</svg>
