<?xml version="1.0" encoding="utf-8"?>
<!-- Generator: Adobe Illustrator 21.0.0, SVG Export Plug-In . SVG Version: 6.00 Build 0)  -->
<svg version="1.1" id="Capa_1" xmlns="http://www.w3.org/2000/svg" xmlns:xlink="http://www.w3.org/1999/xlink" x="0px" y="0px"
	 viewBox="0 0 200 200" style="enable-background:new 0 0 200 200;" xml:space="preserve">
<style type="text/css">
	.st0{fill:#30302D;}
</style>
<g>
	<path class="st0" d="M134.5,117.6c-2.7,1.5-5.7,2.3-8.7,2.3c-0.7,0-1.5-0.1-2.3-0.2l-2-0.3l-0.5,4l2,0.3c1,0.1,1.9,0.2,2.8,0.2
		c3.7,0,7.4-1,10.7-2.9c6.6-3.8,10.7-10.9,10.7-18.5c0-4.4-1.3-8.6-3.8-12.2c1.1-2.2,1.7-4.7,1.7-7.2c0-5.8-3.1-11.2-8.2-14.2
		c-4.3-2.5-9.6-2.9-14.2-1.1c-5.6-8.2-14.6-13-24.6-13c-5.2,0-10.3,1.4-14.9,4c-3.2,1.9-6,4.3-8.3,7.2c-3.5,0.1-7,1.1-10,2.9
		c-6.6,3.8-10.7,10.9-10.7,18.5c0,7.6,4.1,14.7,10.7,18.5c1.4,0.8,3,1.5,4.7,2c1.4,4.9,4.2,9.4,7.9,13l1.4,1.4l2.8-2.9l-1.4-1.4
		c-3.5-3.4-6-7.6-7.1-12.2c-0.2-0.7-0.8-1.3-1.5-1.5c-1.8-0.4-3.4-1-4.8-1.9c-5.4-3.1-8.7-8.9-8.7-15.1c0-6.2,3.3-12,8.7-15.1
		c2.7-1.5,5.7-2.3,8.7-2.3c0,0,0,0,0,0l0.2,0c0.7,0,1.3-0.3,1.7-0.8c2.1-2.8,4.7-5.2,7.8-6.9c3.9-2.3,8.4-3.5,12.9-3.5
		c9.1,0,17.4,4.7,22.1,12.6c0.5,0.9,1.7,1.2,2.7,0.7c1.8-1,3.8-1.5,5.8-1.5c2.2,0,4.3,0.6,6.2,1.7c3.8,2.2,6.2,6.3,6.2,10.7
		c0,2.2-0.6,4.4-1.8,6.3c-0.4,0.7-0.4,1.6,0.2,2.3c2.5,3.1,3.8,6.8,3.8,10.8C143.2,108.7,139.9,114.5,134.5,117.6z"/>
	<path class="st0" d="M110.1,119.6c-0.6-0.6-1.4-0.7-2.2-0.4l-11.8,4.9l7.3-19.5l-3.7-1.4L90.8,127c-0.3,0.7-0.1,1.6,0.5,2.1
		c0.6,0.6,1.4,0.7,2.2,0.4l11.5-4.8l-8.2,19.5l3.7,1.5l10.1-24C110.8,121.1,110.7,120.2,110.1,119.6z"/>
</g>
</svg>
