<?xml version="1.0" encoding="utf-8"?>
<!-- Generator: Adobe Illustrator 21.0.0, SVG Export Plug-In . SVG Version: 6.00 Build 0)  -->
<svg version="1.1" id="Capa_1" xmlns="http://www.w3.org/2000/svg" xmlns:xlink="http://www.w3.org/1999/xlink" x="0px" y="0px"
	 viewBox="0 0 200 200" style="enable-background:new 0 0 200 200;" xml:space="preserve">
<style type="text/css">
	.st0{fill:#30302D;}
</style>
<g>
	<polygon class="st0" points="112,119 102.2,124.7 102.2,113.3 98.2,113.3 98.2,124.7 88.4,119 86.4,122.4 96.3,128.2 86.4,133.9 
		88.4,137.4 98.2,131.7 98.2,143 102.2,143 102.2,131.7 112,137.4 114,133.9 104.2,128.2 114,122.4 	"/>
	<path class="st0" d="M136.4,71.8c-4.3-2.5-9.7-2.9-14.2-1.1c-5.5-8.2-14.6-13-24.5-13c-5.2,0-10.3,1.4-14.9,4
		c-3.2,1.9-6,4.3-8.3,7.2c-3.5,0.1-7,1.1-10,2.9c-6.6,3.8-10.7,10.9-10.7,18.5c0,7.6,4.1,14.7,10.7,18.5c1.4,0.8,3,1.5,4.7,2
		c1.4,4.9,4.2,9.4,7.9,13l1.4,1.4l2.8-2.9l-1.4-1.4c-3.5-3.4-6-7.6-7.1-12.2c-0.2-0.7-0.8-1.3-1.5-1.5c-1.7-0.4-3.4-1-4.8-1.9
		c-5.4-3.1-8.7-8.9-8.7-15.1c0-6.2,3.3-11.9,8.7-15.1c2.6-1.5,5.7-2.3,8.7-2.3c0,0,0,0,0,0c0.1,0,0.2,0,0.2,0c0.7,0,1.3-0.3,1.7-0.8
		c2.1-2.8,4.7-5.2,7.8-6.9c3.9-2.3,8.4-3.5,12.9-3.5c9.1,0,17.4,4.7,22.1,12.6c0.5,0.9,1.7,1.2,2.7,0.7c1.8-1,3.8-1.5,5.8-1.5
		c2.2,0,4.3,0.6,6.2,1.7c3.8,2.2,6.2,6.3,6.2,10.7c0,2.2-0.6,4.4-1.8,6.3c-0.4,0.7-0.4,1.6,0.2,2.3c2.5,3.1,3.8,6.8,3.8,10.8
		c0,6.2-3.3,12-8.7,15.1c-2.7,1.5-5.7,2.4-8.7,2.4c-0.7,0-1.5-0.1-2.3-0.2l-2-0.3l-0.5,4l2,0.3c1,0.1,1.9,0.2,2.8,0.2
		c3.7,0,7.4-1,10.7-2.9c6.6-3.8,10.7-10.9,10.7-18.5c0-4.4-1.3-8.6-3.8-12.2c1.1-2.2,1.7-4.7,1.7-7.2
		C144.6,80.2,141.4,74.7,136.4,71.8z"/>
</g>
</svg>
